<?xml version="1.0" encoding="utf-8"?>
<!-- Generator: Adobe Illustrator 16.0.0, SVG Export Plug-In . SVG Version: 6.00 Build 0)  -->
<!DOCTYPE svg PUBLIC "-//W3C//DTD SVG 1.1//EN" "http://www.w3.org/Graphics/SVG/1.1/DTD/svg11.dtd">
<svg version="1.1" id="Calque_1" xmlns="http://www.w3.org/2000/svg" xmlns:xlink="http://www.w3.org/1999/xlink" x="0px" y="0px"
	 width="512px" height="512px" viewBox="0 0 512 512" enable-background="new 0 0 512 512" xml:space="preserve">
<g>
	<path d="M391.811,219.676H127.938l253.451-69.909c1.968-0.542,3.633-1.812,4.622-3.521c0.991-1.709,1.227-3.725,0.653-5.6
		l-13.263-43.597c-5.296-17.41-22.327-29.573-41.409-29.573c-4.02,0-8.027,0.544-11.908,1.614L82.118,134.727
		c-11.006,3.035-20.127,10-25.688,19.611c-5.563,9.613-6.866,20.678-3.679,31.155l12.961,42.593v175.456
		c0,22.599,19.307,40.982,43.036,40.982h92.939c4.272,0,7.734-3.294,7.734-7.364c0-4.063-3.462-7.361-7.734-7.361h-92.935
		c-15.205,0-27.574-11.781-27.574-26.257v-100.22H120.8h0.02h0.014h60.568h0.019h0.018h60.568h0.018h0.022h60.567h0.019h0.013
		h81.428v100.22c0,14.476-12.367,26.257-27.57,26.257h-92.941c-4.268,0-7.732,3.299-7.732,7.361c0,4.07,3.464,7.364,7.732,7.364
		h92.941c23.73,0,43.042-18.384,43.042-40.982V227.04C399.544,222.973,396.08,219.676,391.811,219.676z M255.427,288.596
		l32.864-54.19h42.738l-32.856,54.19H255.427z M194.822,288.596l32.863-54.19h42.74l-32.859,54.19H194.822z M134.221,288.596
		l32.858-54.19h42.744l-32.86,54.19H134.221z M162.979,193.261l-55.031-50.326l41.231-11.37c0.289,0.404,0.626,0.781,1.015,1.138
		l55.026,50.322l-41.228,11.371C163.702,193.994,163.358,193.612,162.979,193.261z M266.615,100.587l55.028,50.324l-41.232,11.375
		c-0.288-0.406-0.626-0.786-1.012-1.136l-55.03-50.325l41.233-11.375C265.89,99.854,266.229,100.234,266.615,100.587z
		 M208.405,116.645l55.027,50.322l-41.23,11.376c-0.291-0.405-0.626-0.786-1.015-1.139l-55.028-50.323l41.23-11.373
		C207.682,115.911,208.02,116.292,208.405,116.645z M324.389,83.238c2.482-0.685,5.041-1.033,7.604-1.033
		c12.24,0,23.156,7.789,26.552,18.946l11.111,36.517l-31.03,8.56c-0.29-0.404-0.631-0.783-1.019-1.137l-55.024-50.322
		L324.389,83.238z M69.979,161.445c3.563-6.165,9.404-10.632,16.446-12.57l4.542-1.258c0.292,0.403,0.63,0.785,1.015,1.14
		l55.028,50.323l-68.288,18.834L67.61,181.396C65.572,174.698,66.414,167.613,69.979,161.445z M81.178,234.405h68.04l-32.86,54.19
		h-35.18V234.405z M316.035,288.596l32.855-54.19h35.182v54.19H316.035z"/>
	<path d="M286.105,365.811c0-2.632-1.473-5.063-3.867-6.374l-67.949-37.359c-2.393-1.312-5.341-1.312-7.734,0
		c-2.395,1.319-3.868,3.752-3.868,6.382v74.705c0,2.629,1.473,5.063,3.868,6.376c1.195,0.659,2.532,0.991,3.868,0.991
		c1.333,0,2.668-0.332,3.866-0.991l67.949-37.354C284.633,370.875,286.105,368.443,286.105,365.811z M218.157,390.412v-49.195
		l44.746,24.594L218.157,390.412z"/>
	<path d="M232.624,429.799c-4.259,0-7.734,3.307-7.734,7.361c0,4.058,3.476,7.364,7.734,7.364c4.264,0,7.733-3.307,7.733-7.364
		C240.357,433.105,236.888,429.799,232.624,429.799z"/>
</g>
</svg>
