<?xml version="1.0" encoding="utf-8"?>
<!-- Generator: Adobe Illustrator 16.0.0, SVG Export Plug-In . SVG Version: 6.00 Build 0)  -->
<!DOCTYPE svg PUBLIC "-//W3C//DTD SVG 1.1//EN" "http://www.w3.org/Graphics/SVG/1.1/DTD/svg11.dtd">
<svg version="1.1" id="Capa_1" xmlns="http://www.w3.org/2000/svg" xmlns:xlink="http://www.w3.org/1999/xlink" x="0px" y="0px"
	 width="512px" height="512px" viewBox="0 0 512 512" enable-background="new 0 0 512 512" xml:space="preserve">
<g>
	<path d="M125.961,422.861h-39.65c-13.438,0-24.371-10.385-24.371-23.156v-36.527h33.278v14.746c0,3.193,2.725,5.783,6.084,5.783
		h76.561c3.36,0,6.085-2.59,6.085-5.783v-14.746h85.547c3.362,0,6.084-2.59,6.084-5.783c0-3.191-2.722-5.779-6.084-5.779H144.211
		v-28.814h6.816c8.378,0,15.195-6.477,15.195-14.439v-10.557h1.381c14.407,0,27.075-9.238,30.81-22.459l7.178-25.428
		c1.656-5.87,7.281-9.97,13.676-9.97h94.521c6.653,0,12.064,5.142,12.064,11.465v88.742c0,6.318-5.411,11.461-12.064,11.461h-19.961
		c-3.361,0-6.081,2.59-6.081,5.783c0,3.189,2.72,5.779,6.081,5.779h19.961c13.362,0,24.234-10.328,24.234-23.023v-88.742
		c0-12.696-10.872-23.025-24.234-23.025h-94.521c-11.889,0-22.347,7.624-25.428,18.534l-7.177,25.428
		c-2.31,8.182-10.146,13.895-19.059,13.895h-60.512c-5.198,0-9.988-2.014-13.486-5.668c-3.497-3.656-5.151-8.377-4.656-13.293
		l8.73-87.048c1.775-17.699,17.224-31.045,35.933-31.045h41.469c3.359,0,6.083-2.587,6.083-5.78s-2.724-5.782-6.083-5.782h-29.415
		V123.5c0-3.194-2.725-5.781-6.084-5.781c-3.36,0-6.082,2.587-6.082,5.781v14.131c-24.966,0.054-45.562,17.878-47.934,41.506
		l-8.731,87.046c-0.811,8.08,2.021,16.162,7.77,22.17s13.943,9.451,22.487,9.451h2.938v10.559c0,7.961,6.817,14.439,15.196,14.439
		h6.817v28.813H55.857c-3.36,0-6.083,2.59-6.083,5.783v42.309c0,19.143,16.389,34.719,36.536,34.719h39.649
		c3.358,0,6.082-2.588,6.082-5.781C132.044,425.451,129.32,422.861,125.961,422.861z M122.199,308.363v-10.559h31.858v10.559
		c0,1.588-1.359,2.879-3.029,2.879h-25.802C123.558,311.242,122.199,309.951,122.199,308.363z M171.778,372.145h-64.392v-8.967
		h64.392V372.145z"/>
	<path d="M413.959,137.627h-6.399V96.725c0-3.192-2.724-5.779-6.083-5.779h-11.275v-7.591c0-3.194-2.725-5.781-6.084-5.781
		s-6.083,2.587-6.083,5.781v7.591H366.79c-3.359,0-6.084,2.587-6.084,5.779v40.902h-161.29c-3.36,0-6.085,2.589-6.085,5.782
		s2.725,5.78,6.085,5.78h214.543c19.905,0,36.098,15.388,36.098,34.3v216.215c0,12.771-10.932,23.156-24.368,23.156H150.294
		c-3.359,0-6.083,2.59-6.083,5.783s2.724,5.781,6.083,5.781h275.395c20.146,0,36.535-15.576,36.535-34.721V183.49
		C462.224,158.203,440.573,137.627,413.959,137.627z M372.873,102.506h22.522v35.121h-22.522V102.506z"/>
	<path d="M395.626,227.174c-16.481,0-29.892,12.741-29.892,28.403c0,15.661,13.41,28.401,29.892,28.401
		c16.479,0,29.89-12.74,29.89-28.401C425.516,239.916,412.104,227.174,395.626,227.174z M395.626,272.418
		c-9.774,0-17.727-7.555-17.727-16.843c0-9.285,7.952-16.839,17.727-16.839c9.772,0,17.722,7.554,17.722,16.839
		C413.348,264.863,405.398,272.418,395.626,272.418z"/>
	<path d="M290.845,193.376c3.359,0,6.086-2.589,6.086-5.78c0-3.193-2.727-5.781-6.086-5.781h-18.366
		c-3.359,0-6.084,2.588-6.084,5.781c0,3.191,2.725,5.78,6.084,5.78H290.845z"/>
	<path d="M414.389,181.815h-95.2c-3.362,0-6.084,2.588-6.084,5.781c0,3.191,2.722,5.78,6.084,5.78h95.2
		c3.364,0,6.084-2.589,6.084-5.78C420.473,184.403,417.753,181.815,414.389,181.815z"/>
</g>
</svg>
