<?xml version="1.0" encoding="utf-8"?>
<!-- Generator: Adobe Illustrator 16.0.0, SVG Export Plug-In . SVG Version: 6.00 Build 0)  -->
<!DOCTYPE svg PUBLIC "-//W3C//DTD SVG 1.1//EN" "http://www.w3.org/Graphics/SVG/1.1/DTD/svg11.dtd">
<svg version="1.1" id="Calque_1" xmlns="http://www.w3.org/2000/svg" xmlns:xlink="http://www.w3.org/1999/xlink" x="0px" y="0px"
	 width="512px" height="512px" viewBox="0 0 512 512" enable-background="new 0 0 512 512" xml:space="preserve">
<g id="Outline">
	<g>
		<path d="M436.379,154.253c-3.435,0-6.222,2.932-6.222,6.551V396.63h-33.772c-40.029,0.006-79.924,4.793-118.927,14.268
			c-5.007,1.209-10.207-0.965-13.063-5.462c22.209-14.315,47.74-21.896,73.776-21.905h73.326c3.437,0,6.222-2.934,6.222-6.552
			v-45.854c0-3.616-2.785-6.551-6.222-6.551c-3.434,0-6.219,2.935-6.219,6.551v39.306h-67.107
			c-26.62-0.025-52.788,7.223-75.953,21.04V213.209c0-3.617-2.783-6.548-6.218-6.548c-3.437,0-6.221,2.931-6.221,6.548v178.254
			c-23.162-13.817-49.332-21.065-75.953-21.033h-67.107V134.601h95.789c26.111,0.02,47.271,22.317,47.271,49.82
			c0,3.617,2.784,6.55,6.221,6.55c3.435,0,6.218-2.933,6.218-6.55c0-27.503,21.159-49.801,47.274-49.82h95.786v170.32
			c0,3.619,2.785,6.552,6.219,6.552c3.437,0,6.222-2.933,6.222-6.552V128.05c0-3.617-2.785-6.55-6.222-6.55H309.492
			c-22.679,0.018-43.395,13.543-53.492,34.928c-10.102-21.385-30.815-34.91-53.492-34.928H100.5c-3.437,0-6.221,2.933-6.221,6.55
			v248.929c0,3.618,2.784,6.552,6.221,6.552h73.326c26.042,0.009,51.578,7.59,73.788,21.905c-2.864,4.484-8.054,6.655-13.061,5.462
			c-39.006-9.479-78.906-14.262-118.938-14.268H81.84V160.804c0-3.619-2.784-6.551-6.22-6.551s-6.22,2.932-6.22,6.551v242.378
			c0,3.619,2.784,6.55,6.22,6.55h39.995c39.085,0.008,78.042,4.685,116.126,13.937c8.922,2.168,18.252-1.026,24.259-8.308
			c6.004,7.283,15.336,10.478,24.259,8.308c38.083-9.252,77.041-13.928,116.126-13.937h39.994c3.434,0,6.219-2.931,6.219-6.55
			V160.804C442.598,157.185,439.813,154.253,436.379,154.253z"/>
		<path d="M235.617,177.921c-9.802-6.893-21.323-10.572-33.109-10.564h-70.907c-3.437,0-6.221,2.931-6.221,6.549
			c0,3.617,2.784,6.551,6.221,6.551h70.907c9.34-0.013,18.472,2.901,26.235,8.364c2.858,2.009,6.722,1.197,8.627-1.813
			c1.907-3.012,1.134-7.077-1.722-9.086H235.617z"/>
		<path d="M380.398,167.356h-70.906c-11.798-0.012-23.332,3.667-33.143,10.564c-2.856,2.009-3.627,6.074-1.722,9.086
			c1.905,3.011,5.769,3.822,8.627,1.813c7.765-5.461,16.897-8.373,26.237-8.364h70.906c3.436,0,6.22-2.934,6.22-6.551
			C386.618,170.287,383.834,167.356,380.398,167.356z"/>
		<path d="M235.617,210.674c-9.802-6.895-21.323-10.568-33.109-10.565h-70.907c-3.437,0-6.221,2.935-6.221,6.553
			c0,3.615,2.784,6.548,6.221,6.548h70.907c9.34-0.009,18.472,2.901,26.235,8.367c2.858,2.007,6.722,1.194,8.627-1.814
			c1.907-3.011,1.134-7.08-1.722-9.088H235.617z"/>
		<path d="M380.398,200.108h-70.906c-11.798-0.009-23.332,3.667-33.143,10.565c-2.856,2.008-3.627,6.077-1.722,9.088
			c1.905,3.009,5.769,3.821,8.627,1.814l0,0c7.765-5.465,16.897-8.375,26.237-8.367h70.906c3.436,0,6.22-2.933,6.22-6.548
			C386.618,203.043,383.834,200.108,380.398,200.108z"/>
		<path d="M235.617,243.429c-9.802-6.894-21.323-10.569-33.109-10.567h-70.907c-3.437,0-6.221,2.932-6.221,6.551
			c0,3.62,2.784,6.553,6.221,6.553h70.907c9.34-0.012,18.472,2.9,26.235,8.365c2.858,2.006,6.722,1.196,8.627-1.815
			c1.907-3.011,1.134-7.079-1.722-9.086l0,0H235.617z"/>
		<path d="M380.398,232.861h-70.906c-11.798-0.01-23.332,3.668-33.143,10.567c-2.856,2.007-3.627,6.075-1.722,9.086
			c1.905,3.012,5.769,3.821,8.627,1.815l0,0c7.765-5.465,16.897-8.377,26.237-8.365h70.906c3.436,0,6.22-2.933,6.22-6.553
			C386.618,235.793,383.834,232.861,380.398,232.861z"/>
		<path d="M235.617,276.185c-9.802-6.896-21.323-10.572-33.109-10.569h-70.907c-3.437,0-6.221,2.935-6.221,6.552
			c0,3.615,2.784,6.552,6.221,6.552h70.907c9.34-0.013,18.472,2.897,26.235,8.363c2.858,2.01,6.722,1.195,8.627-1.814
			c1.907-3.008,1.134-7.077-1.722-9.083H235.617z"/>
		<path d="M380.398,265.615h-70.906c-11.798-0.007-23.332,3.669-33.143,10.569c-2.856,2.006-3.627,6.075-1.722,9.083
			c1.905,3.01,5.769,3.824,8.627,1.814c7.765-5.463,16.897-8.375,26.237-8.363h70.906c3.436,0,6.22-2.937,6.22-6.552
			C386.618,268.55,383.834,265.615,380.398,265.615z"/>
		<path d="M235.617,308.937c-9.802-6.894-21.323-10.571-33.109-10.567h-70.907c-3.437,0-6.221,2.934-6.221,6.552
			c0,3.619,2.784,6.552,6.221,6.552h70.907c9.34-0.014,18.472,2.899,26.235,8.363c2.858,2.01,6.722,1.195,8.627-1.812
			c1.907-3.01,1.134-7.08-1.722-9.088l0,0H235.617z"/>
		<path d="M380.398,298.369h-70.906c-11.798-0.011-23.332,3.669-33.143,10.567c-2.856,2.008-3.627,6.078-1.722,9.088
			c1.905,3.007,5.769,3.821,8.627,1.812c7.765-5.462,16.897-8.374,26.237-8.363h70.906c3.436,0,6.22-2.933,6.22-6.552
			C386.618,301.303,383.834,298.369,380.398,298.369z"/>
		<path d="M202.508,331.124h-70.907c-3.437,0-6.221,2.932-6.221,6.553c0,3.614,2.784,6.548,6.221,6.548h70.907
			c9.34-0.011,18.472,2.9,26.235,8.365c2.858,2.008,6.722,1.196,8.627-1.815c1.907-3.009,1.134-7.075-1.722-9.081l0,0
			C225.837,334.791,214.304,331.114,202.508,331.124z"/>
		<path d="M380.398,331.124h-70.906c-11.798-0.01-23.332,3.667-33.143,10.569c-2.856,2.006-3.627,6.072-1.722,9.081
			c1.905,3.012,5.769,3.823,8.627,1.815l0,0c7.765-5.461,16.897-8.373,26.237-8.365h70.906c3.436,0,6.22-2.934,6.22-6.548
			C386.618,334.056,383.834,331.124,380.398,331.124z"/>
	</g>
</g>
</svg>
